<svg width="18" height="15" viewBox="0 0 18 15" fill="none" xmlns="http://www.w3.org/2000/svg">
<path d="M13.1665 1.84275H16.4998C16.7208 1.84275 16.9328 1.91892 17.0891 2.05451C17.2454 2.1901 17.3332 2.374 17.3332 2.56576V14.1339C17.3332 14.3257 17.2454 14.5096 17.0891 14.6452C16.9328 14.7808 16.7208 14.8569 16.4998 14.8569H1.49984C1.27882 14.8569 1.06686 14.7808 0.910582 14.6452C0.754301 14.5096 0.666504 14.3257 0.666504 14.1339V2.56576C0.666504 2.374 0.754301 2.1901 0.910582 2.05451C1.06686 1.91892 1.27882 1.84275 1.49984 1.84275H4.83317V0.396729H6.49984V1.84275H11.4998V0.396729H13.1665V1.84275ZM11.4998 3.28877H6.49984V4.73479H4.83317V3.28877H2.33317V6.18081H15.6665V3.28877H13.1665V4.73479H11.4998V3.28877ZM15.6665 7.62683H2.33317V13.4109H15.6665V7.62683Z" fill="black"/>
</svg>
