<svg width="36" height="36" viewBox="0 0 36 36" fill="none" xmlns="http://www.w3.org/2000/svg">
<g clip-path="url(#clip0_327_349)">
<path d="M34.9453 29.6719H34.5234V28.6172C34.5234 25.7808 32.9153 23.3132 30.5632 22.0773C31.6948 21.1094 32.4141 19.6727 32.4141 18.0703C32.4141 15.1625 30.0484 12.7969 27.1406 12.7969C24.2329 12.7969 21.8672 15.1625 21.8672 18.0703C21.8672 19.6727 22.5865 21.1094 23.718 22.0773C21.3659 23.3132 19.7578 25.7808 19.7578 28.6172V29.6719H13.8383L13.1352 27.5625H18C18.5825 27.5625 19.0547 27.0903 19.0547 26.5078V15.9609C19.0547 15.3785 18.5825 14.9062 18 14.9062H1.125C0.542531 14.9062 0.0703125 15.3785 0.0703125 15.9609V26.5078C0.0703125 27.0903 0.542531 27.5625 1.125 27.5625H5.98978L5.28666 29.6719H1.05469C0.472219 29.6719 0 30.1441 0 30.7266V34.9453C0 35.5278 0.472219 36 1.05469 36H34.9453C35.5278 36 36 35.5278 36 34.9453V30.7266C36 30.1441 35.5278 29.6719 34.9453 29.6719ZM23.9766 18.0703C23.9766 16.3256 25.396 14.9062 27.1406 14.9062C28.8853 14.9062 30.3047 16.3256 30.3047 18.0703C30.3047 19.815 28.8853 21.2344 27.1406 21.2344C25.396 21.2344 23.9766 19.815 23.9766 18.0703ZM21.8672 28.6172C21.8672 25.7094 24.2329 23.3438 27.1406 23.3438C30.0484 23.3438 32.4141 25.7094 32.4141 28.6172V29.6719H21.8672V28.6172ZM2.17969 17.0156H16.9453V25.4531H2.17969V17.0156ZM8.21334 27.5625H10.9117L11.6149 29.6719H7.51022L8.21334 27.5625ZM33.8906 33.8906H2.10938V31.7812H33.8906V33.8906Z" fill="black"/>
<path d="M8.15625 10.5469H16.9775L20.9306 13.1823C21.1071 13.2999 21.3111 13.3594 21.5157 13.3594C21.6863 13.3594 21.8573 13.318 22.0133 13.2346C22.3562 13.0511 22.5703 12.6937 22.5703 12.3047V10.5469H23.625C24.982 10.5469 26.0859 9.4429 26.0859 8.08594V2.46094C26.0859 1.10398 24.982 0 23.625 0H8.15625C6.79929 0 5.69531 1.10398 5.69531 2.46094V8.08594C5.69531 9.4429 6.79929 10.5469 8.15625 10.5469ZM7.80469 2.46094C7.80469 2.26709 7.9624 2.10938 8.15625 2.10938H23.625C23.8189 2.10938 23.9766 2.26709 23.9766 2.46094V8.08594C23.9766 8.27979 23.8189 8.4375 23.625 8.4375H21.5156C20.9332 8.4375 20.4609 8.90972 20.4609 9.49219V10.334L17.8819 8.61462C17.7086 8.49909 17.5051 8.4375 17.2969 8.4375H8.15625C7.9624 8.4375 7.80469 8.27979 7.80469 8.08594V2.46094Z" fill="black"/>
<path d="M10.9688 6.32812H20.8125C21.395 6.32812 21.8672 5.85591 21.8672 5.27344C21.8672 4.69097 21.395 4.21875 20.8125 4.21875H10.9688C10.3863 4.21875 9.91406 4.69097 9.91406 5.27344C9.91406 5.85591 10.3863 6.32812 10.9688 6.32812Z" fill="black"/>
</g>
<defs>
<clipPath id="clip0_327_349">
<rect width="36" height="36" fill="white"/>
</clipPath>
</defs>
</svg>
