<svg width="36" height="36" viewBox="0 0 36 36" fill="none" xmlns="http://www.w3.org/2000/svg">
<path d="M36 18C36 16.509 34.9672 15.2553 33.5796 14.9152C33.1745 12.8648 32.3622 10.904 31.1975 9.16518C31.9384 7.94344 31.7823 6.32647 30.7279 5.27209C29.6736 4.21779 28.0566 4.06165 26.8348 4.80254C25.096 3.63784 23.1352 2.82558 21.0848 2.42047C20.7447 1.03278 19.491 0 18 0C16.509 0 15.2553 1.03278 14.9152 2.4204C12.8648 2.82551 10.904 3.63777 9.16518 4.80247C7.94344 4.06158 6.3264 4.21779 5.27209 5.27202C4.03355 6.51056 4.03355 8.52572 5.27209 9.76426C5.89129 10.3835 6.70475 10.6931 7.51821 10.6931C7.98685 10.6931 8.45527 10.5897 8.88685 10.3842L13.5853 15.0826C13.217 15.638 12.95 16.2663 12.8125 16.9412H6.17082C5.73374 15.7088 4.55682 14.8235 3.17647 14.8235C1.42496 14.8235 0 16.2484 0 18C0 19.491 1.03285 20.7447 2.4204 21.0848C2.82551 23.1352 3.63777 25.096 4.80247 26.8348C4.06158 28.0566 4.21765 29.6735 5.27209 30.7279C5.89129 31.3471 6.70475 31.6568 7.51821 31.6568C8.08977 31.6568 8.66104 31.5032 9.16525 31.1975C10.9041 32.3622 12.8649 33.1744 14.9152 33.5795C15.2553 34.9672 16.509 36 18 36C19.7515 36 21.1765 34.5751 21.1765 32.8235C21.1765 31.4432 20.2912 30.2663 19.0588 29.8292V23.1875C19.7337 23.05 20.3619 22.7831 20.9173 22.4148L25.6158 27.1132C25.0534 28.2937 25.2596 29.7518 26.2357 30.7279C26.8549 31.3471 27.6683 31.6568 28.4817 31.6568C29.2952 31.6568 30.1086 31.3471 30.7278 30.7279C31.7822 29.6735 31.9383 28.0566 31.1975 26.8348C32.3622 25.096 33.1744 23.1352 33.5795 21.0848C34.9672 20.7447 36 19.491 36 18ZM27.1132 25.6158L22.4147 20.9175C22.783 20.362 23.05 19.7338 23.1875 19.0589H29.8291C30.1121 19.8568 30.705 20.509 31.4629 20.8698C31.1138 22.5104 30.463 24.0812 29.5484 25.4905C28.7577 25.2099 27.8774 25.2518 27.1132 25.6158ZM15.0827 13.5852L10.3842 8.88678C10.7483 8.12259 10.7903 7.24228 10.5096 6.45134C11.9188 5.53687 13.4896 4.88612 15.1303 4.53706C15.491 5.29489 16.1433 5.88784 16.9412 6.17082V12.8125C16.2662 12.95 15.6381 13.2169 15.0827 13.5852ZM19.0588 6.17082C19.8567 5.88784 20.5089 5.29497 20.8697 4.53706C22.5104 4.88612 24.0812 5.53687 25.4904 6.45134C25.2097 7.24228 25.2517 8.12259 25.6158 8.88678L20.9173 13.5852C20.3619 13.2169 19.7337 12.95 19.0588 12.8125V6.17082ZM29.5485 10.5095C30.4631 11.9188 31.1139 13.4897 31.4629 15.1303C30.7051 15.4911 30.1122 16.1433 29.8292 16.9412H23.1876C23.05 16.2663 22.7831 15.638 22.4148 15.0826L27.1132 10.3842C27.5447 10.5897 28.0132 10.6931 28.4819 10.6931C28.8431 10.6931 29.2043 10.6317 29.5485 10.5095ZM32.8235 19.0588C32.2397 19.0588 31.7647 18.5839 31.7647 18C31.7647 17.4162 32.2397 16.9412 32.8235 16.9412C33.4074 16.9412 33.8824 17.4162 33.8824 18C33.8824 18.5839 33.4074 19.0588 32.8235 19.0588ZM29.2305 6.76941C29.6442 7.18313 29.6443 7.85308 29.2305 8.26687C28.8166 8.68066 28.147 8.68066 27.7331 8.26687C27.3203 7.854 27.3203 7.18228 27.7331 6.76941C28.1459 6.35668 28.8176 6.35668 29.2305 6.76941ZM18 2.11765C18.5838 2.11765 19.0588 2.59264 19.0588 3.17647C19.0588 3.76031 18.5838 4.23529 18 4.23529C17.4162 4.23529 16.9412 3.76031 16.9412 3.17647C16.9412 2.59264 17.4162 2.11765 18 2.11765ZM6.76948 6.76941C7.18228 6.35661 7.85407 6.35661 8.26687 6.76941C8.92969 7.43224 8.45894 8.57697 7.51821 8.57697C6.58214 8.57704 6.10179 7.43711 6.76948 6.76941ZM15.1303 31.4629C13.4896 31.1139 11.9188 30.4631 10.5096 29.5487C10.7903 28.7577 10.7483 27.8774 10.3842 27.1132L15.0827 22.4149C15.6381 22.7831 16.2663 23.0501 16.9412 23.1876V29.8292C16.1433 30.1122 15.491 30.7051 15.1303 31.4629ZM6.45141 25.4905C5.53687 24.0812 4.88605 22.5104 4.53699 20.8697C5.29489 20.5089 5.88784 19.8568 6.17082 19.0588H12.8124C12.95 19.7337 13.2169 20.362 13.5852 20.9174L8.88678 25.6158C8.12259 25.2518 7.24228 25.2099 6.45141 25.4905ZM3.17647 16.9412C3.76031 16.9412 4.23529 17.4162 4.23529 18C4.23529 18.5839 3.76031 19.0588 3.17647 19.0588C2.59264 19.0588 2.11765 18.5839 2.11765 18C2.11765 17.4162 2.59264 16.9412 3.17647 16.9412ZM6.76948 29.2306C6.35576 28.8169 6.35569 28.1469 6.76948 27.7331C7.18341 27.3193 7.85301 27.3193 8.26687 27.7331C8.67974 28.146 8.67974 28.8177 8.26687 29.2306C7.85414 29.6433 7.18235 29.6434 6.76948 29.2306ZM18 33.8824C17.4162 33.8824 16.9412 33.4074 16.9412 32.8235C16.9412 32.2396 17.4162 31.7647 18 31.7647C18.5838 31.7647 19.0588 32.2396 19.0588 32.8235C19.0588 33.4074 18.5838 33.8824 18 33.8824ZM18 21.1765C16.2485 21.1765 14.8235 19.7516 14.8235 18C14.8235 16.2484 16.2485 14.8235 18 14.8235C19.7515 14.8235 21.1765 16.2484 21.1765 18C21.1765 19.7516 19.7515 21.1765 18 21.1765ZM27.7331 29.2306C27.3203 28.8177 27.3203 28.146 27.7331 27.7331C27.9331 27.5332 28.199 27.423 28.4819 27.423C29.067 27.423 29.5407 27.8965 29.5407 28.4819C29.5406 29.4152 28.4036 29.901 27.7331 29.2306Z" fill="black"/>
</svg>
