<svg width="36" height="36" viewBox="0 0 36 36" fill="none" xmlns="http://www.w3.org/2000/svg">
<g clip-path="url(#clip0_327_311)">
<path d="M32.8359 0H3.16406C1.4194 0 0 1.4194 0 3.16406V24.3281C0 26.0728 1.4194 27.4922 3.16406 27.4922H12.7266V29.778C10.3224 30.2679 8.50781 32.3986 8.50781 34.9453C8.50781 35.5278 8.98003 36 9.5625 36H26.4375C27.02 36 27.4922 35.5278 27.4922 34.9453C27.4922 32.3987 25.6776 30.268 23.2734 29.778V27.4922H32.8359C34.5806 27.4922 36 26.0728 36 24.3281V3.16406C36 1.4194 34.5806 0 32.8359 0ZM25.2021 33.8906H10.7979C11.2331 32.6629 12.4061 31.7812 13.7812 31.7812H22.2188C23.5939 31.7812 24.7668 32.6629 25.2021 33.8906ZM14.8359 29.6719V27.4922H21.1641V29.6719H14.8359ZM33.8906 24.3281C33.8906 24.9097 33.4175 25.3828 32.8359 25.3828C31.2184 25.3828 4.73702 25.3828 3.16406 25.3828C2.58251 25.3828 2.10938 24.9097 2.10938 24.3281V23.2734H33.8906V24.3281ZM33.8906 21.1641H2.10938V3.16406C2.10938 2.58251 2.58251 2.10938 3.16406 2.10938H32.8359C33.4175 2.10938 33.8906 2.58251 33.8906 3.16406V21.1641Z" fill="black"/>
<path d="M11.6719 6.39844H7.38281C6.80034 6.39844 6.32812 6.87066 6.32812 7.45312C6.32812 8.03559 6.80034 8.50781 7.38281 8.50781H11.6719C12.2543 8.50781 12.7266 8.03559 12.7266 7.45312C12.7266 6.87066 12.2543 6.39844 11.6719 6.39844Z" fill="black"/>
<path d="M11.6719 10.6172H7.38281C6.80034 10.6172 6.32812 11.0894 6.32812 11.6719C6.32812 12.2543 6.80034 12.7266 7.38281 12.7266H11.6719C12.2543 12.7266 12.7266 12.2543 12.7266 11.6719C12.7266 11.0894 12.2543 10.6172 11.6719 10.6172Z" fill="black"/>
<path d="M11.6719 14.8359H7.38281C6.80034 14.8359 6.32812 15.3082 6.32812 15.8906C6.32812 16.4731 6.80034 16.9453 7.38281 16.9453H11.6719C12.2543 16.9453 12.7266 16.4731 12.7266 15.8906C12.7266 15.3082 12.2543 14.8359 11.6719 14.8359Z" fill="black"/>
<path d="M29.0823 7.53074C28.9576 7.45782 30.0212 8.10006 23.8376 4.35085C23.5024 4.14772 23.0824 4.14702 22.7466 4.3493L17.4684 7.52849C17.1467 7.71636 16.9452 8.06532 16.9452 8.4396V14.8132C16.9453 15.1824 17.1384 15.5249 17.4545 15.7158L22.7279 18.9027C23.0675 19.1081 23.4917 19.1006 23.8189 18.9027L29.0923 15.7158C29.4084 15.5249 29.6015 15.1824 29.6015 14.8132V8.43953C29.6015 7.8091 29.0892 7.53777 29.0823 7.53074ZM22.2187 16.1303L19.0547 14.2182V10.3092L22.2187 12.2213V16.1303ZM23.2734 10.3941L20.0416 8.44107L23.289 6.48505L26.5102 8.43805L23.2734 10.3941ZM27.4922 14.2182L24.3281 16.1303V12.2213L27.4922 10.3092V14.2182Z" fill="black"/>
</g>
<defs>
<clipPath id="clip0_327_311">
<rect width="36" height="36" fill="white"/>
</clipPath>
</defs>
</svg>
