<svg width="18" height="18" viewBox="0 0 18 18" fill="none" xmlns="http://www.w3.org/2000/svg">
<path d="M14.0257 12.8475L17.5948 16.4158L16.4157 17.595L12.8473 14.0258C11.5196 15.0901 9.86817 15.669 8.1665 15.6666C4.0265 15.6666 0.666504 12.3066 0.666504 8.16663C0.666504 4.02663 4.0265 0.666626 8.1665 0.666626C12.3065 0.666626 15.6665 4.02663 15.6665 8.16663C15.6689 9.86829 15.09 11.5197 14.0257 12.8475ZM12.354 12.2291C13.4116 11.1415 14.0022 9.68365 13.9998 8.16663C13.9998 4.94329 11.389 2.33329 8.1665 2.33329C4.94317 2.33329 2.33317 4.94329 2.33317 8.16663C2.33317 11.3891 4.94317 14 8.1665 14C9.68353 14.0023 11.1414 13.4117 12.229 12.3541L12.354 12.2291Z" fill="black"/>
</svg>
